<svg width="60" height="60" viewBox="0 0 60 60" fill="none" xmlns="http://www.w3.org/2000/svg">
<g clip-path="url(#clip0_105_26)">
<path fill-rule="evenodd" clip-rule="evenodd" d="M60 7.5C60 3.36059 56.6394 0 52.5 0H7.5C3.36059 0 0 3.36059 0 7.5V52.5C0 56.6394 3.36059 60 7.5 60H52.5C56.6394 60 60 56.6394 60 52.5V7.5Z" fill="#2867B2"/>
<path d="M17.2047 20.9376H7.15466V51.1675H17.2047V20.9376Z" fill="white"/>
<path d="M12.2475 6.36096C8.8091 6.36096 6.5625 8.62151 6.5625 11.5844C6.5625 14.485 8.74078 16.8079 12.1145 16.8079H12.1794C15.6837 16.8079 17.8649 14.485 17.8649 11.5844C17.7998 8.62151 15.6839 6.36096 12.2475 6.36096Z" fill="white"/>
<path d="M41.8685 20.2267C36.5376 20.2267 34.1498 23.1584 32.8127 25.2176V20.9375H22.7653C22.8985 23.7731 22.7653 51.1673 22.7653 51.1673H32.8126V34.2848C32.8126 33.3812 32.8775 32.4778 33.1439 31.832C33.869 30.0273 35.5233 28.1579 38.2993 28.1579C41.9335 28.1579 43.3894 30.9311 43.3894 34.9931V51.1673H53.4372V33.8318C53.4372 24.5462 48.4796 20.2267 41.8685 20.2267Z" fill="white"/>
</g>
<defs>
<clipPath id="clip0_105_26">
<rect width="60" height="60" fill="white"/>
</clipPath>
</defs>
</svg>
