<svg width="50" height="50" viewBox="0 0 50 50" fill="none" xmlns="http://www.w3.org/2000/svg">
<path d="M25 4.50417C31.675 4.50417 32.4667 4.52917 35.1021 4.65C37.8271 4.775 40.6333 5.39583 42.6188 7.38125C44.6229 9.38542 45.225 12.1646 45.35 14.8979C45.4708 17.5333 45.4958 18.325 45.4958 25C45.4958 31.675 45.4708 32.4667 45.35 35.1021C45.2271 37.8125 44.5917 40.6458 42.6188 42.6188C40.6146 44.6229 37.8375 45.225 35.1021 45.35C32.4667 45.4708 31.675 45.4958 25 45.4958C18.325 45.4958 17.5333 45.4708 14.8979 45.35C12.2083 45.2271 9.3375 44.5771 7.38125 42.6188C5.3875 40.625 4.775 37.8188 4.65 35.1021C4.52917 32.4667 4.50417 31.675 4.50417 25C4.50417 18.325 4.52917 17.5333 4.65 14.8979C4.77292 12.1979 5.41458 9.34792 7.38125 7.38125C9.38125 5.38125 12.1708 4.775 14.8979 4.65C17.5333 4.52917 18.325 4.50417 25 4.50417ZM25 0C18.2104 0 17.3583 0.0291667 14.6917 0.15C10.8271 0.327083 6.98958 1.40208 4.19583 4.19583C1.39167 7 0.327083 10.8292 0.15 14.6917C0.0291667 17.3583 0 18.2104 0 25C0 31.7896 0.0291667 32.6417 0.15 35.3083C0.327083 39.1687 1.40625 43.0167 4.19583 45.8042C6.99792 48.6062 10.8333 49.6729 14.6917 49.85C17.3583 49.9708 18.2104 50 25 50C31.7896 50 32.6417 49.9708 35.3083 49.85C39.1708 49.6729 43.0125 48.5958 45.8042 45.8042C48.6104 42.9979 49.6729 39.1708 49.85 35.3083C49.9708 32.6417 50 31.7896 50 25C50 18.2104 49.9708 17.3583 49.85 14.6917C49.6729 10.8271 48.5958 6.9875 45.8042 4.19583C43.0062 1.39792 39.1604 0.325 35.3083 0.15C32.6417 0.0291667 31.7896 0 25 0Z" fill="black"/>
<path d="M25 12.1625C17.9104 12.1625 12.1625 17.9104 12.1625 25C12.1625 32.0896 17.9104 37.8375 25 37.8375C32.0896 37.8375 37.8375 32.0896 37.8375 25C37.8375 17.9104 32.0896 12.1625 25 12.1625ZM25 33.3333C20.3979 33.3333 16.6667 29.6021 16.6667 25C16.6667 20.3979 20.3979 16.6667 25 16.6667C29.6021 16.6667 33.3333 20.3979 33.3333 25C33.3333 29.6021 29.6021 33.3333 25 33.3333Z" fill="black"/>
<path d="M38.3458 14.6542C40.0027 14.6542 41.3458 13.311 41.3458 11.6542C41.3458 9.99732 40.0027 8.65417 38.3458 8.65417C36.689 8.65417 35.3458 9.99732 35.3458 11.6542C35.3458 13.311 36.689 14.6542 38.3458 14.6542Z" fill="black"/>
</svg>
