<svg width="40" height="40" viewBox="0 0 40 40" fill="none" xmlns="http://www.w3.org/2000/svg">
<g clip-path="url(#clip0_2_26)">
<path d="M20 0.346832C8.95349 0.346832 0 9.24857 0 20.2312C0 31.2139 8.95349 40.1156 20 40.1156C31.0465 40.1156 40 31.2139 40 20.2312C40 9.24857 31.0465 0.346832 20 0.346832ZM13.907 30.659H9.03488V15.0867H13.907V30.659ZM11.4651 12.948C9.90698 12.948 8.63954 11.6879 8.63954 10.1387C8.63954 8.58961 9.90698 7.32949 11.4651 7.32949C13.0233 7.32949 14.2907 8.58961 14.2907 10.1387C14.2907 11.6879 13.0233 12.948 11.4651 12.948ZM32.1279 30.659H27.2674V23.0867C27.2674 21.2832 27.2326 18.9595 24.7326 18.9595C22.1977 18.9595 21.814 20.9249 21.814 22.9596V30.6705H16.9535V15.0867H21.6279V17.2139H21.686C22.6395 15.5954 24.407 14.6243 26.2907 14.6937C31.2209 14.6937 32.1279 17.9191 32.1279 22.1156V30.659Z" fill="black"/>
</g>
<defs>
<clipPath id="clip0_2_26">
<rect width="40" height="40" fill="white"/>
</clipPath>
</defs>
</svg>
